<?xml version="1.0" encoding="UTF-8"?>
<!DOCTYPE svg PUBLIC "-//W3C//DTD SVG 1.1//EN" "http://www.w3.org/Graphics/SVG/1.1/DTD/svg11.dtd">
<!-- Creator: CorelDRAW 2020 (64-Bit) -->
<svg xmlns="http://www.w3.org/2000/svg" xml:space="preserve" width="0.799992in" height="0.799992in" version="1.1" style="shape-rendering:geometricPrecision; text-rendering:geometricPrecision; image-rendering:optimizeQuality; fill-rule:evenodd; clip-rule:evenodd"
viewBox="0 0 799.99 799.99"
 xmlns:xlink="http://www.w3.org/1999/xlink"
 xmlns:xodm="http://www.corel.com/coreldraw/odm/2003">
 <defs>
  <style type="text/css">
   <![CDATA[
    .fil2 {fill:#C40D12}
    .fil0 {fill:#EC1B24}
    .fil1 {fill:#F05759}
   ]]>
  </style>
 </defs>
 <g id="Layer_x0020_1">
  <metadata id="CorelCorpID_0Corel-Layer"/>
  <path class="fil0" d="M669.33 165.11l0 42.06 0 5.04 0 75.74 0 13.26c-18.6,22.89 -132.09,40.5 -269.33,40.5 -137.25,0 -250.73,-17.61 -269.33,-40.5l0 -13.26 0 -60.33 0 -15.41 0 -47.1 0.11 0c4.07,25.15 123.04,45.33 269.22,45.33 146.18,0 265.15,-20.18 269.22,-45.33l0.11 0z"/>
  <path class="fil0" d="M669.33 352.69l0 35.46 0 86.05 0 3.11 -0.61 0c-9.24,24.32 -126.01,43.56 -268.72,43.56 -142.72,0 -259.48,-19.24 -268.72,-43.56l-0.61 0 0 -3.11 0 -51.79 0 -34.26 0 -35.46c18.56,22.9 132.06,40.52 269.33,40.52 137.28,0 250.78,-17.63 269.33,-40.52z"/>
  <path class="fil0" d="M669.33 531.83l0 35.46 0 86.05 0 3.11 -0.61 0c-9.24,24.32 -126.01,43.56 -268.72,43.56 -142.72,0 -259.48,-19.24 -268.72,-43.56l-0.61 0 0 -3.11 0 -51.79 0 -34.26 0 -35.46c18.56,22.9 132.06,40.52 269.33,40.52 137.28,0 250.78,-17.63 269.33,-40.52z"/>
  <filter id="saturation">
  </filter>
  <path class="fil1" d="M627.15 188.86l0 131.66c-48.66,12.77 -132.21,21.2 -227.15,21.2l0 -131.28c95.47,0 179.32,-8.61 227.15,-21.59zm0 183.15l0 125.68 0 1.58c-47.82,12.98 -131.68,21.59 -227.15,21.59l0 -1.97 0 -125.68c94.94,0 178.5,-8.43 227.15,-21.2zm0 179.14l0 127.26 -2.27 0.61 -0.49 0.13 -1.37 0.35 -0.89 0.22 -1.94 0.48 -2.42 0.59 -2.16 0.5 -0.78 0.18 -0.11 0.03 -0.23 0.05 -0.11 0.03 -0.11 0.02 -0.11 0.03 -0.11 0.02 -0.11 0.03 -0.11 0.03 -0.11 0.02 -0.11 0.03 -0.04 0.01 -0.08 0.02 -0.11 0.03 -0.11 0.02 -0.12 0.03 -0.11 0.02 -0.11 0.03 -0.11 0.02 -0.12 0.03 -0.11 0.02 -0.12 0.03 -0.11 0.02 -0.11 0.03 -0.12 0.02 -0.11 0.03 -0.12 0.02 -0.11 0.03 -0.12 0.02 -0.11 0.03 -0.12 0.02 -0.12 0.03 -0.11 0.02 -0.12 0.03 -0.12 0.02 -0.11 0.03 -0.12 0.02 -0.12 0.03 -0.12 0.02 -0.12 0.02 -0.12 0.03 -0.11 0.02 -0.12 0.03 -0.24 0.05 -0.04 0.01 -0.55 0.11 -0.12 0.02 -0.12 0.03 -0.12 0.02 -0.12 0.02 -0.12 0.03 -0.12 0.02 -0.24 0.05 -0.12 0.02 -0.12 0.03 -0.12 0.02 -0.46 0.1 -2.46 0.51 -2.72 0.54 -1.96 0.38 -0.45 0.09 -0.59 0.11 -0.55 0.1 -2.02 0.38 -2.86 0.52 -0.5 0.09 -1.88 0.33 -0.94 0.17 -2.46 0.42 -0.5 0.09 -0.07 0.01 -0.07 0.01 -0.07 0.01 -0.07 0.02 -0.07 0.01 -0.07 0.01 -0.07 0.01 -0.07 0.01 -0.07 0.01 -0.07 0.01 -0.07 0.02 -0.07 0.01 -0.07 0.01 -0.07 0.01 -0.07 0.01 -0.07 0.01 -0.07 0.01 -0.07 0.02 -0.07 0.01 -0.07 0.01 -0.07 0.01 -0.07 0.01 -0.07 0.01 -0.07 0.01 -0.07 0.01 -0.07 0.02 -0.07 0.01 -0.07 0.01 -0.07 0.01 -0.08 0.01 -0.22 0.04 -0.07 0.01 -0.07 0.01 -0.07 0.01 -0.07 0.01 -0.28 0.05 -0.02 0 -0.08 0.01 -0.07 0.01 -0.07 0.01 -0.07 0.01 -0.07 0.01 -0.07 0.01 -0.23 0.04 -0.07 0.01 -0.07 0.01 -0.07 0.01 -0.08 0.01 -0.07 0.01 -0.07 0.01 -0.07 0.01 -0.08 0.01 -0.07 0.02 -0.07 0.01 -0.07 0.01 -0.07 0.01 -0.08 0.01 -0.07 0.01 -1.48 0.24 -2.29 0.35 -0.09 0.02 -3.12 0.48 -2.12 0.31 -1.76 0.26 -2.28 0.32 -0.02 0 -0.19 0.03 -3.25 0.45 -0.47 0.06 -1.57 0.21 -2.11 0.28 -1.25 0.17 -1.05 0.13 -0.16 0.02 -3.37 0.42 -2.15 0.26 -2.01 0.24 -2.39 0.28 -0.3 0.04 -3.48 0.4 -0.43 0.05 -1.14 0.12 -3.14 0.34 -1 0.11 -0.68 0.07 -4.13 0.42 -0.56 0.06 -1.73 0.17 -2.26 0.22 -1.46 0.14 -0.99 0.09 -0.46 0.04 -3.69 0.34 -0.38 0.04 -3.35 0.3 -0.59 0.05 -1.65 0.14 -1.11 0.09 -0.41 0.04 -3.8 0.31 -0.35 0.03 0 0 -1.35 0.1 -3.06 0.24 -1.34 0.1 -0.96 0.07 -3.88 0.28 -0.65 0.05 -0.32 0.02 -1.51 0.1 -3.23 0.22 -1.14 0.08 -0.92 0.06 -4.73 0.3 -0.29 0.02 -5.07 0.3 -0.94 0.06 -0.66 0.04 -5.15 0.28 -0.25 0.01 -1.2 0.06 -3.63 0.18 -1.3 0.06 -1.02 0.05 -4.96 0.22 -0.22 0.01 -5.75 0.23 -0.49 0.02 -0.49 0.02 -5.17 0.19 -0.46 0.02 -0.18 0.01 -0.87 0.03 -4.83 0.15 -0.65 0.02 -0.72 0.02 -5.55 0.15 -0.13 0 -0 0 -0.15 0 -5.83 0.13 -0.47 0.01 -0.59 0.01 -5.82 0.11 -0.09 0 -0.39 0 -5.64 0.08 -0.52 0.01 -0.37 0 -5.17 0.06 -1 0.01 -0.04 0 -0 0 -1.55 0.01 -3.96 0.03 -1.12 0 -1.13 0 -5.54 0.01 0 -127.65c94.94,0 178.5,-8.43 227.15,-21.2z"/>
  <path class="fil2" d="M130.78 147.99c-0.07,-0.44 -0.11,-0.89 -0.11,-1.33 0,-25.78 120.58,-46.67 269.33,-46.67 148.75,0 269.33,20.89 269.33,46.67 0,0.44 -0.04,0.89 -0.11,1.33 -4.07,25.16 -123.04,45.33 -269.22,45.33 -146.18,0 -265.15,-20.18 -269.22,-45.33z"/>
 </g>
</svg>
