<?xml version="1.0" encoding="UTF-8"?>
<!DOCTYPE svg PUBLIC "-//W3C//DTD SVG 1.1//EN" "http://www.w3.org/Graphics/SVG/1.1/DTD/svg11.dtd">
<!-- Creator: CorelDRAW 2020 (64-Bit) -->
<svg xmlns="http://www.w3.org/2000/svg" xml:space="preserve" width="2.97644in" height="0.282051in" version="1.1" style="shape-rendering:geometricPrecision; text-rendering:geometricPrecision; image-rendering:optimizeQuality; fill-rule:evenodd; clip-rule:evenodd"
viewBox="0 0 1353.27 128.24"
 xmlns:xlink="http://www.w3.org/1999/xlink"
 xmlns:xodm="http://www.corel.com/coreldraw/odm/2003">
 <defs>
  <style type="text/css">
   <![CDATA[
    .fil0 {fill:#8AA8BD;fill-rule:nonzero;fill-opacity:0.501961}
    .fil2 {fill:white;fill-rule:nonzero;fill-opacity:0.501961}
    .fil1 {fill:url(#id0);fill-rule:nonzero}
   ]]>
  </style>
  <linearGradient id="id0" gradientUnits="userSpaceOnUse" x1="654.85" y1="186.43" x2="694.84" y2="-59.98">
   <stop offset="0" style="stop-opacity:1; stop-color:#8AA8BD"/>
   <stop offset="0.329412" style="stop-opacity:1; stop-color:#BDC8D1"/>
   <stop offset="0.619608" style="stop-opacity:1; stop-color:#B4C5D1"/>
   <stop offset="1" style="stop-opacity:1; stop-color:#D5DBE0"/>
  </linearGradient>
 </defs>
 <g id="Layer_x0020_1">
  <metadata id="CorelCorpID_0Corel-Layer"/>
  <g id="_1184979673872">
   <path class="fil0" d="M86.3 110.2c-7.73,3.74 -17.86,5.61 -30.34,5.61 -16.27,0 -29.07,-4.77 -38.39,-14.35 -9.35,-9.57 -13.99,-22.33 -13.99,-38.27 0,-16.97 5.23,-30.74 15.71,-41.3 10.48,-10.56 24.1,-15.84 40.82,-15.84 10.36,0 19.1,1.31 26.19,3.94l0 23.01c-7.1,-4.24 -15.18,-6.37 -24.27,-6.37 -9.95,0 -18.01,3.13 -24.12,9.4 -6.11,6.27 -9.17,14.75 -9.17,25.46 0,10.25 2.88,18.44 8.66,24.53 5.76,6.09 13.54,9.14 23.31,9.14 9.32,0 17.86,-2.27 25.59,-6.82l0 21.85zm90.05 0c-7.73,3.74 -17.86,5.61 -30.34,5.61 -16.27,0 -29.07,-4.77 -38.39,-14.35 -9.35,-9.57 -13.99,-22.33 -13.99,-38.27 0,-16.97 5.23,-30.74 15.71,-41.3 10.48,-10.56 24.1,-15.84 40.82,-15.84 10.36,0 19.1,1.31 26.19,3.94l0 23.01c-7.1,-4.24 -15.18,-6.37 -24.27,-6.37 -9.95,0 -18.01,3.13 -24.12,9.4 -6.11,6.27 -9.17,14.75 -9.17,25.46 0,10.25 2.88,18.44 8.66,24.53 5.76,6.09 13.54,9.14 23.31,9.14 9.32,0 17.86,-2.27 25.59,-6.82l0 21.85zm139.43 3.76l-23.62 0 0 -63.5c0,-6.85 0.3,-14.42 0.88,-22.71l-0.58 0c-1.24,6.52 -2.35,11.19 -3.33,14.07l-24.85 72.14 -19.55 0 -25.31 -71.41c-0.68,-1.92 -1.79,-6.87 -3.33,-14.8l-0.66 0c0.63,10.46 0.96,19.63 0.96,27.53l0 58.68 -21.55 0 0 -106.11 35.01 0 21.7 62.9c1.72,5.03 2.98,10.08 3.76,15.18l0.45 0c1.31,-5.89 2.73,-10.99 4.22,-15.33l21.67 -62.74 34.13 0 0 106.11zm110.48 1.84c-15.21,0 -27.58,-4.95 -37.16,-14.83 -9.57,-9.9 -14.35,-22.78 -14.35,-38.67 0,-16.77 4.85,-30.34 14.57,-40.69 9.73,-10.36 22.58,-15.56 38.62,-15.56 15.16,0 27.41,4.98 36.75,14.88 9.35,9.93 14.02,23.01 14.02,39.23 0,16.67 -4.85,30.13 -14.55,40.34 -9.67,10.2 -22.33,15.31 -37.91,15.31zm1.03 -89.16c-8.39,0 -15.05,3.13 -19.98,9.45 -4.92,6.29 -7.4,14.6 -7.4,24.96 0,10.51 2.48,18.82 7.4,24.96 4.93,6.11 11.39,9.17 19.38,9.17 8.26,0 14.78,-2.98 19.63,-8.92 4.82,-5.96 7.25,-14.19 7.25,-24.75 0,-11.01 -2.35,-19.58 -7.02,-25.69 -4.7,-6.11 -11.11,-9.17 -19.25,-9.17zm116.19 32.63c-2.83,-1.54 -6.11,-2.3 -9.85,-2.3 -5.08,0 -9.04,1.87 -11.92,5.58 -2.85,3.74 -4.29,8.79 -4.29,15.21l0 36.2 -23.36 0 0 -75.78 23.36 0 0 14.07 0.3 0c3.71,-10.28 10.36,-15.41 19.98,-15.41 2.48,0 4.4,0.3 5.79,0.88l0 21.55zm73.93 54.69l-22.13 0 0 -10.89 -0.3 0c-5.08,8.49 -12.6,12.73 -22.58,12.73 -7.35,0 -13.14,-2.07 -17.35,-6.24 -4.22,-4.17 -6.31,-9.75 -6.31,-16.7 0,-14.7 8.71,-23.19 26.12,-25.46l20.59 -2.73c0,-8.28 -4.5,-12.43 -13.49,-12.43 -9.02,0 -17.61,2.68 -25.74,8.06l0 -17.61c3.26,-1.69 7.7,-3.16 13.36,-4.44 5.63,-1.29 10.79,-1.92 15.43,-1.92 21.6,0 32.41,10.79 32.41,32.33l0 45.29zm-21.98 -30.79l0 -5.1 -13.77 1.77c-7.6,0.98 -11.39,4.42 -11.39,10.31 0,2.65 0.91,4.85 2.75,6.54 1.87,1.69 4.37,2.55 7.53,2.55 4.39,0 7.96,-1.51 10.73,-4.55 2.75,-3.03 4.14,-6.87 4.14,-11.52zm97.9 28.06c-5.28,3.06 -12.91,4.57 -22.86,4.57 -11.64,0 -21.06,-3.51 -28.26,-10.58 -7.2,-7.05 -10.81,-16.14 -10.81,-27.31 0,-12.88 3.86,-23.01 11.57,-30.44 7.73,-7.42 18.06,-11.14 30.99,-11.14 8.92,0 15.38,1.19 19.37,3.54l0 19.85c-4.87,-3.66 -10.33,-5.48 -16.34,-5.48 -6.72,0 -12.02,1.95 -15.96,5.89 -3.91,3.91 -5.89,9.32 -5.89,16.24 0,6.69 1.89,11.97 5.63,15.79 3.74,3.84 8.92,5.73 15.46,5.73 5.83,0 11.52,-1.82 17.1,-5.48l0 18.82zm38.7 2.73l-23.36 0 0 -112.18 23.36 0 0 112.18zm87.78 -31.22l-49.43 0c0.78,10.99 7.73,16.49 20.79,16.49 8.34,0 15.66,-1.97 21.98,-5.91l0 16.87c-7,3.74 -16.09,5.61 -27.31,5.61 -12.22,0 -21.72,-3.38 -28.49,-10.18 -6.74,-6.77 -10.13,-16.24 -10.13,-28.37 0,-12.58 3.64,-22.56 10.96,-29.91 7.3,-7.35 16.27,-11.01 26.93,-11.01 11.04,0 19.6,3.28 25.64,9.83 6.04,6.57 9.07,15.48 9.07,26.72l0 9.85zm-21.67 -14.37c0,-10.83 -4.4,-16.27 -13.19,-16.27 -3.74,0 -7,1.54 -9.73,4.65 -2.75,3.11 -4.4,7 -5,11.62l27.91 0zm103.59 9.04l0 36.55 -23.92 0 0 -106.11 37.46 0c26.75,0 40.11,11.27 40.11,33.82 0,10.66 -3.84,19.27 -11.52,25.87 -7.68,6.57 -17.91,9.88 -30.74,9.88l-11.39 0zm0 -51.22l0 33.09 9.4 0c12.73,0 19.1,-5.58 19.1,-16.72 0,-10.91 -6.37,-16.37 -19.1,-16.37l-9.4 0zm132.38 87.77l-63.2 0 0 -106.11 23.92 0 0 86.71 39.28 0 0 19.4zm51.2 -4.07l0 -23.69c4.29,3.61 8.97,6.32 13.99,8.11 5.03,1.79 10.1,2.7 15.23,2.7 3.03,0 5.66,-0.28 7.88,-0.81 2.25,-0.56 4.12,-1.29 5.63,-2.27 1.52,-0.96 2.63,-2.1 3.36,-3.38 0.76,-1.31 1.11,-2.73 1.11,-4.27 0,-2.07 -0.58,-3.91 -1.77,-5.53 -1.19,-1.64 -2.8,-3.16 -4.85,-4.52 -2.05,-1.39 -4.47,-2.73 -7.3,-3.99 -2.8,-1.29 -5.83,-2.6 -9.09,-3.94 -8.28,-3.44 -14.47,-7.65 -18.54,-12.66 -4.07,-4.98 -6.09,-10.99 -6.09,-18.03 0,-5.53 1.09,-10.28 3.31,-14.25 2.22,-3.99 5.25,-7.25 9.07,-9.83 3.84,-2.55 8.26,-4.45 13.29,-5.66 5.03,-1.21 10.36,-1.82 15.99,-1.82 5.53,0 10.43,0.35 14.7,1.01 4.24,0.66 8.18,1.69 11.8,3.08l0 22.13c-1.79,-1.24 -3.71,-2.32 -5.81,-3.26 -2.1,-0.93 -4.27,-1.72 -6.49,-2.35 -2.2,-0.61 -4.42,-1.06 -6.62,-1.36 -2.2,-0.28 -4.27,-0.43 -6.24,-0.43 -2.73,0 -5.18,0.25 -7.4,0.76 -2.22,0.53 -4.09,1.26 -5.63,2.2 -1.52,0.93 -2.7,2.05 -3.56,3.36 -0.83,1.31 -1.24,2.78 -1.24,4.39 0,1.79 0.45,3.38 1.39,4.77 0.93,1.41 2.27,2.75 4.02,4.02 1.72,1.24 3.81,2.48 6.29,3.69 2.45,1.21 5.25,2.45 8.36,3.74 4.24,1.77 8.03,3.66 11.42,5.66 3.38,2 6.29,4.27 8.69,6.77 2.43,2.53 4.27,5.41 5.56,8.64 1.29,3.21 1.92,6.97 1.92,11.27 0,5.94 -1.11,10.89 -3.36,14.93 -2.25,4.02 -5.28,7.27 -9.15,9.75 -3.84,2.5 -8.31,4.29 -13.41,5.38 -5.13,1.09 -10.51,1.62 -16.19,1.62 -5.81,0 -11.34,-0.48 -16.6,-1.46 -5.25,-0.99 -9.83,-2.48 -13.66,-4.45zm134.68 5.91c-15.21,0 -27.58,-4.93 -37.16,-14.8 -9.57,-9.95 -14.35,-22.86 -14.35,-38.7 0,-16.72 4.85,-30.29 14.57,-40.69 9.67,-10.36 22.56,-15.56 38.62,-15.56 15.16,0 27.38,4.98 36.7,14.88 9.37,9.88 14.07,22.96 14.07,39.23 0,16.62 -4.85,30.06 -14.57,40.34 -0.35,0.33 -0.66,0.68 -0.96,0.98 -0.3,0.33 -0.63,0.63 -0.96,0.93l26.85 25.82 -33.44 0 -14.07 -14.27c-4.62,1.24 -9.73,1.84 -15.31,1.84zm1.03 -89.16c-8.33,0 -15,3.16 -19.98,9.47 -4.92,6.27 -7.4,14.58 -7.4,24.93 0,10.51 2.48,18.82 7.4,24.96 4.93,6.11 11.39,9.17 19.38,9.17 8.26,0 14.78,-2.96 19.63,-8.89 4.82,-6.01 7.25,-14.27 7.25,-24.78 0,-10.96 -2.35,-19.53 -7.02,-25.69 -4.65,-6.11 -11.06,-9.17 -19.25,-9.17zm132.23 87.32l-63.2 0 0 -106.11 23.92 0 0 86.71 39.28 0 0 19.4z"/>
   <path class="fil1" d="M82.72 108.41c-7.73,3.74 -17.86,5.61 -30.34,5.61 -16.27,0 -29.07,-4.77 -38.39,-14.35 -9.35,-9.57 -13.99,-22.33 -13.99,-38.27 0,-16.97 5.23,-30.74 15.71,-41.3 10.48,-10.56 24.1,-15.84 40.82,-15.84 10.36,0 19.1,1.31 26.19,3.94l0 23.01c-7.1,-4.24 -15.18,-6.37 -24.27,-6.37 -9.95,0 -18.01,3.13 -24.12,9.4 -6.11,6.27 -9.17,14.75 -9.17,25.46 0,10.25 2.88,18.44 8.66,24.53 5.76,6.09 13.54,9.14 23.31,9.14 9.32,0 17.86,-2.27 25.59,-6.82l0 21.85zm90.05 0c-7.73,3.74 -17.86,5.61 -30.34,5.61 -16.27,0 -29.07,-4.77 -38.39,-14.35 -9.35,-9.57 -13.99,-22.33 -13.99,-38.27 0,-16.97 5.23,-30.74 15.71,-41.3 10.48,-10.56 24.1,-15.84 40.82,-15.84 10.36,0 19.1,1.31 26.19,3.94l0 23.01c-7.1,-4.24 -15.18,-6.37 -24.27,-6.37 -9.95,0 -18.01,3.13 -24.12,9.4 -6.11,6.27 -9.17,14.75 -9.17,25.46 0,10.25 2.88,18.44 8.66,24.53 5.76,6.09 13.54,9.14 23.31,9.14 9.32,0 17.86,-2.27 25.59,-6.82l0 21.85zm139.43 3.76l-23.62 0 0 -63.5c0,-6.85 0.3,-14.42 0.88,-22.71l-0.58 0c-1.24,6.52 -2.35,11.19 -3.33,14.07l-24.85 72.14 -19.55 0 -25.31 -71.41c-0.68,-1.92 -1.79,-6.87 -3.33,-14.8l-0.66 0c0.63,10.46 0.96,19.63 0.96,27.53l0 58.68 -21.55 0 0 -106.11 35.01 0 21.7 62.9c1.72,5.03 2.98,10.08 3.76,15.18l0.45 0c1.31,-5.89 2.73,-10.99 4.22,-15.33l21.67 -62.74 34.13 0 0 106.11zm110.48 1.84c-15.21,0 -27.58,-4.95 -37.16,-14.83 -9.57,-9.9 -14.35,-22.78 -14.35,-38.67 0,-16.77 4.85,-30.34 14.57,-40.69 9.73,-10.36 22.58,-15.56 38.62,-15.56 15.16,0 27.41,4.98 36.75,14.88 9.35,9.93 14.02,23.01 14.02,39.23 0,16.67 -4.85,30.13 -14.55,40.34 -9.67,10.2 -22.33,15.31 -37.91,15.31zm1.03 -89.16c-8.39,0 -15.05,3.13 -19.98,9.45 -4.92,6.29 -7.4,14.6 -7.4,24.96 0,10.51 2.48,18.82 7.4,24.96 4.93,6.11 11.39,9.17 19.38,9.17 8.26,0 14.78,-2.98 19.63,-8.92 4.82,-5.96 7.25,-14.19 7.25,-24.75 0,-11.01 -2.35,-19.58 -7.02,-25.69 -4.7,-6.11 -11.11,-9.17 -19.25,-9.17zm116.19 32.63c-2.83,-1.54 -6.11,-2.3 -9.85,-2.3 -5.08,0 -9.04,1.87 -11.92,5.58 -2.85,3.74 -4.29,8.79 -4.29,15.21l0 36.2 -23.36 0 0 -75.78 23.36 0 0 14.07 0.3 0c3.71,-10.28 10.36,-15.41 19.98,-15.41 2.48,0 4.4,0.3 5.79,0.88l0 21.55zm73.93 54.69l-22.13 0 0 -10.89 -0.3 0c-5.08,8.49 -12.6,12.73 -22.58,12.73 -7.35,0 -13.14,-2.07 -17.35,-6.24 -4.22,-4.17 -6.31,-9.75 -6.31,-16.7 0,-14.7 8.71,-23.19 26.12,-25.46l20.59 -2.73c0,-8.28 -4.5,-12.43 -13.49,-12.43 -9.02,0 -17.61,2.68 -25.74,8.06l0 -17.61c3.26,-1.69 7.7,-3.16 13.36,-4.44 5.63,-1.29 10.79,-1.92 15.43,-1.92 21.6,0 32.41,10.79 32.41,32.33l0 45.29zm-21.98 -30.79l0 -5.1 -13.77 1.77c-7.6,0.98 -11.39,4.42 -11.39,10.31 0,2.65 0.91,4.85 2.75,6.54 1.87,1.69 4.37,2.55 7.53,2.55 4.39,0 7.96,-1.51 10.73,-4.55 2.75,-3.03 4.14,-6.87 4.14,-11.52zm97.9 28.06c-5.28,3.06 -12.91,4.57 -22.86,4.57 -11.64,0 -21.06,-3.51 -28.26,-10.58 -7.2,-7.05 -10.81,-16.14 -10.81,-27.31 0,-12.88 3.86,-23.01 11.57,-30.44 7.73,-7.42 18.06,-11.14 30.99,-11.14 8.92,0 15.38,1.19 19.37,3.54l0 19.85c-4.87,-3.66 -10.33,-5.48 -16.34,-5.48 -6.72,0 -12.02,1.95 -15.96,5.89 -3.91,3.91 -5.89,9.32 -5.89,16.24 0,6.69 1.89,11.97 5.63,15.79 3.74,3.84 8.92,5.73 15.46,5.73 5.83,0 11.52,-1.82 17.1,-5.48l0 18.82zm38.7 2.73l-23.36 0 0 -112.18 23.36 0 0 112.18zm87.78 -31.22l-49.43 0c0.78,10.99 7.73,16.49 20.79,16.49 8.34,0 15.66,-1.97 21.98,-5.91l0 16.87c-7,3.74 -16.09,5.61 -27.31,5.61 -12.22,0 -21.72,-3.38 -28.49,-10.18 -6.74,-6.77 -10.13,-16.24 -10.13,-28.37 0,-12.58 3.64,-22.56 10.96,-29.91 7.3,-7.35 16.27,-11.01 26.93,-11.01 11.04,0 19.6,3.28 25.64,9.83 6.04,6.57 9.07,15.48 9.07,26.72l0 9.85zm-21.67 -14.37c0,-10.83 -4.4,-16.27 -13.19,-16.27 -3.74,0 -7,1.54 -9.73,4.65 -2.75,3.11 -4.4,7 -5,11.62l27.91 0zm103.59 9.04l0 36.55 -23.92 0 0 -106.11 37.46 0c26.75,0 40.11,11.27 40.11,33.82 0,10.66 -3.84,19.27 -11.52,25.87 -7.68,6.57 -17.91,9.88 -30.74,9.88l-11.39 0zm0 -51.22l0 33.09 9.4 0c12.73,0 19.1,-5.58 19.1,-16.72 0,-10.91 -6.37,-16.37 -19.1,-16.37l-9.4 0zm132.38 87.77l-63.2 0 0 -106.11 23.92 0 0 86.71 39.28 0 0 19.4zm51.2 -4.07l0 -23.69c4.29,3.61 8.97,6.32 13.99,8.11 5.03,1.79 10.1,2.7 15.23,2.7 3.03,0 5.66,-0.28 7.88,-0.81 2.25,-0.56 4.12,-1.29 5.63,-2.27 1.52,-0.96 2.63,-2.1 3.36,-3.38 0.76,-1.31 1.11,-2.73 1.11,-4.27 0,-2.07 -0.58,-3.91 -1.77,-5.53 -1.19,-1.64 -2.8,-3.16 -4.85,-4.52 -2.05,-1.39 -4.47,-2.73 -7.3,-3.99 -2.8,-1.29 -5.83,-2.6 -9.09,-3.94 -8.28,-3.44 -14.47,-7.65 -18.54,-12.66 -4.07,-4.98 -6.09,-10.99 -6.09,-18.03 0,-5.53 1.09,-10.28 3.31,-14.25 2.22,-3.99 5.25,-7.25 9.07,-9.83 3.84,-2.55 8.26,-4.45 13.29,-5.66 5.03,-1.21 10.36,-1.82 15.99,-1.82 5.53,0 10.43,0.35 14.7,1.01 4.24,0.66 8.18,1.69 11.8,3.08l0 22.13c-1.79,-1.24 -3.71,-2.32 -5.81,-3.26 -2.1,-0.93 -4.27,-1.72 -6.49,-2.35 -2.2,-0.61 -4.42,-1.06 -6.62,-1.36 -2.2,-0.28 -4.27,-0.43 -6.24,-0.43 -2.73,0 -5.18,0.25 -7.4,0.76 -2.22,0.53 -4.09,1.26 -5.63,2.2 -1.52,0.93 -2.7,2.05 -3.56,3.36 -0.83,1.31 -1.24,2.78 -1.24,4.39 0,1.79 0.45,3.38 1.39,4.77 0.93,1.41 2.27,2.75 4.02,4.02 1.72,1.24 3.81,2.48 6.29,3.69 2.45,1.21 5.25,2.45 8.36,3.74 4.24,1.77 8.03,3.66 11.42,5.66 3.38,2 6.29,4.27 8.69,6.77 2.43,2.53 4.27,5.41 5.56,8.64 1.29,3.21 1.92,6.97 1.92,11.27 0,5.94 -1.11,10.89 -3.36,14.93 -2.25,4.02 -5.28,7.27 -9.15,9.75 -3.84,2.5 -8.31,4.29 -13.41,5.38 -5.13,1.09 -10.51,1.62 -16.19,1.62 -5.81,0 -11.34,-0.48 -16.6,-1.46 -5.25,-0.99 -9.83,-2.48 -13.66,-4.45zm134.68 5.91c-15.21,0 -27.58,-4.93 -37.16,-14.8 -9.57,-9.95 -14.35,-22.86 -14.35,-38.7 0,-16.72 4.85,-30.29 14.57,-40.69 9.67,-10.36 22.56,-15.56 38.62,-15.56 15.16,0 27.38,4.98 36.7,14.88 9.37,9.88 14.07,22.96 14.07,39.23 0,16.62 -4.85,30.06 -14.57,40.34 -0.35,0.33 -0.66,0.68 -0.96,0.98 -0.3,0.33 -0.63,0.63 -0.96,0.93l26.85 25.82 -33.44 0 -14.07 -14.27c-4.62,1.24 -9.73,1.84 -15.31,1.84zm1.03 -89.16c-8.33,0 -15,3.16 -19.98,9.47 -4.92,6.27 -7.4,14.58 -7.4,24.93 0,10.51 2.48,18.82 7.4,24.96 4.93,6.11 11.39,9.17 19.38,9.17 8.26,0 14.78,-2.96 19.63,-8.89 4.82,-6.01 7.25,-14.27 7.25,-24.78 0,-10.96 -2.35,-19.53 -7.02,-25.69 -4.65,-6.11 -11.06,-9.17 -19.25,-9.17zm132.23 87.32l-63.2 0 0 -106.11 23.92 0 0 86.71 39.28 0 0 19.4z"/>
   <path class="fil2" d="M82.72 108.41c-7.73,3.74 -17.86,5.61 -30.34,5.61 -16.27,0 -29.07,-4.77 -38.39,-14.35 -9.35,-9.57 -13.99,-22.33 -13.99,-38.27 0,-16.97 5.23,-30.74 15.71,-41.3 10.48,-10.56 24.1,-15.84 40.82,-15.84 10.36,0 19.1,1.31 26.19,3.94l0 23.01c-7.1,-4.24 -15.18,-6.37 -24.27,-6.37 -9.95,0 -18.01,3.13 -24.12,9.4 -6.11,6.27 -9.17,14.75 -9.17,25.46 0,10.25 2.88,18.44 8.66,24.53 5.76,6.09 13.54,9.14 23.31,9.14 9.32,0 17.86,-2.27 25.59,-6.82l0 21.85zm90.05 0c-7.73,3.74 -17.86,5.61 -30.34,5.61 -16.27,0 -29.07,-4.77 -38.39,-14.35 -9.35,-9.57 -13.99,-22.33 -13.99,-38.27 0,-16.97 5.23,-30.74 15.71,-41.3 10.48,-10.56 24.1,-15.84 40.82,-15.84 10.36,0 19.1,1.31 26.19,3.94l0 23.01c-7.1,-4.24 -15.18,-6.37 -24.27,-6.37 -9.95,0 -18.01,3.13 -24.12,9.4 -6.11,6.27 -9.17,14.75 -9.17,25.46 0,10.25 2.88,18.44 8.66,24.53 5.76,6.09 13.54,9.14 23.31,9.14 9.32,0 17.86,-2.27 25.59,-6.82l0 21.85zm139.43 3.76l-23.62 0 0 -63.5c0,-6.85 0.3,-14.42 0.88,-22.71l-0.58 0c-1.24,6.52 -2.35,11.19 -3.33,14.07l-24.85 72.14 -19.55 0 -25.31 -71.41c-0.68,-1.92 -1.79,-6.87 -3.33,-14.8l-0.66 0c0.63,10.46 0.96,19.63 0.96,27.53l0 58.68 -21.55 0 0 -106.11 35.01 0 21.7 62.9c1.72,5.03 2.98,10.08 3.76,15.18l0.45 0c1.31,-5.89 2.73,-10.99 4.22,-15.33l21.67 -62.74 34.13 0 0 106.11zm110.48 1.84c-15.21,0 -27.58,-4.95 -37.16,-14.83 -9.57,-9.9 -14.35,-22.78 -14.35,-38.67 0,-16.77 4.85,-30.34 14.57,-40.69 9.73,-10.36 22.58,-15.56 38.62,-15.56 15.16,0 27.41,4.98 36.75,14.88 9.35,9.93 14.02,23.01 14.02,39.23 0,16.67 -4.85,30.13 -14.55,40.34 -9.67,10.2 -22.33,15.31 -37.91,15.31zm1.03 -89.16c-8.39,0 -15.05,3.13 -19.98,9.45 -4.92,6.29 -7.4,14.6 -7.4,24.96 0,10.51 2.48,18.82 7.4,24.96 4.93,6.11 11.39,9.17 19.38,9.17 8.26,0 14.78,-2.98 19.63,-8.92 4.82,-5.96 7.25,-14.19 7.25,-24.75 0,-11.01 -2.35,-19.58 -7.02,-25.69 -4.7,-6.11 -11.11,-9.17 -19.25,-9.17zm116.19 32.63c-2.83,-1.54 -6.11,-2.3 -9.85,-2.3 -5.08,0 -9.04,1.87 -11.92,5.58 -2.85,3.74 -4.29,8.79 -4.29,15.21l0 36.2 -23.36 0 0 -75.78 23.36 0 0 14.07 0.3 0c3.71,-10.28 10.36,-15.41 19.98,-15.41 2.48,0 4.4,0.3 5.79,0.88l0 21.55zm73.93 54.69l-22.13 0 0 -10.89 -0.3 0c-5.08,8.49 -12.6,12.73 -22.58,12.73 -7.35,0 -13.14,-2.07 -17.35,-6.24 -4.22,-4.17 -6.31,-9.75 -6.31,-16.7 0,-14.7 8.71,-23.19 26.12,-25.46l20.59 -2.73c0,-8.28 -4.5,-12.43 -13.49,-12.43 -9.02,0 -17.61,2.68 -25.74,8.06l0 -17.61c3.26,-1.69 7.7,-3.16 13.36,-4.44 5.63,-1.29 10.79,-1.92 15.43,-1.92 21.6,0 32.41,10.79 32.41,32.33l0 45.29zm-21.98 -30.79l0 -5.1 -13.77 1.77c-7.6,0.98 -11.39,4.42 -11.39,10.31 0,2.65 0.91,4.85 2.75,6.54 1.87,1.69 4.37,2.55 7.53,2.55 4.39,0 7.96,-1.51 10.73,-4.55 2.75,-3.03 4.14,-6.87 4.14,-11.52zm97.9 28.06c-5.28,3.06 -12.91,4.57 -22.86,4.57 -11.64,0 -21.06,-3.51 -28.26,-10.58 -7.2,-7.05 -10.81,-16.14 -10.81,-27.31 0,-12.88 3.86,-23.01 11.57,-30.44 7.73,-7.42 18.06,-11.14 30.99,-11.14 8.92,0 15.38,1.19 19.37,3.54l0 19.85c-4.87,-3.66 -10.33,-5.48 -16.34,-5.48 -6.72,0 -12.02,1.95 -15.96,5.89 -3.91,3.91 -5.89,9.32 -5.89,16.24 0,6.69 1.89,11.97 5.63,15.79 3.74,3.84 8.92,5.73 15.46,5.73 5.83,0 11.52,-1.82 17.1,-5.48l0 18.82zm38.7 2.73l-23.36 0 0 -112.18 23.36 0 0 112.18zm87.78 -31.22l-49.43 0c0.78,10.99 7.73,16.49 20.79,16.49 8.34,0 15.66,-1.97 21.98,-5.91l0 16.87c-7,3.74 -16.09,5.61 -27.31,5.61 -12.22,0 -21.72,-3.38 -28.49,-10.18 -6.74,-6.77 -10.13,-16.24 -10.13,-28.37 0,-12.58 3.64,-22.56 10.96,-29.91 7.3,-7.35 16.27,-11.01 26.93,-11.01 11.04,0 19.6,3.28 25.64,9.83 6.04,6.57 9.07,15.48 9.07,26.72l0 9.85zm-21.67 -14.37c0,-10.83 -4.4,-16.27 -13.19,-16.27 -3.74,0 -7,1.54 -9.73,4.65 -2.75,3.11 -4.4,7 -5,11.62l27.91 0zm103.59 9.04l0 36.55 -23.92 0 0 -106.11 37.46 0c26.75,0 40.11,11.27 40.11,33.82 0,10.66 -3.84,19.27 -11.52,25.87 -7.68,6.57 -17.91,9.88 -30.74,9.88l-11.39 0zm0 -51.22l0 33.09 9.4 0c12.73,0 19.1,-5.58 19.1,-16.72 0,-10.91 -6.37,-16.37 -19.1,-16.37l-9.4 0zm132.38 87.77l-63.2 0 0 -106.11 23.92 0 0 86.71 39.28 0 0 19.4zm51.2 -4.07l0 -23.69c4.29,3.61 8.97,6.32 13.99,8.11 5.03,1.79 10.1,2.7 15.23,2.7 3.03,0 5.66,-0.28 7.88,-0.81 2.25,-0.56 4.12,-1.29 5.63,-2.27 1.52,-0.96 2.63,-2.1 3.36,-3.38 0.76,-1.31 1.11,-2.73 1.11,-4.27 0,-2.07 -0.58,-3.91 -1.77,-5.53 -1.19,-1.64 -2.8,-3.16 -4.85,-4.52 -2.05,-1.39 -4.47,-2.73 -7.3,-3.99 -2.8,-1.29 -5.83,-2.6 -9.09,-3.94 -8.28,-3.44 -14.47,-7.65 -18.54,-12.66 -4.07,-4.98 -6.09,-10.99 -6.09,-18.03 0,-5.53 1.09,-10.28 3.31,-14.25 2.22,-3.99 5.25,-7.25 9.07,-9.83 3.84,-2.55 8.26,-4.45 13.29,-5.66 5.03,-1.21 10.36,-1.82 15.99,-1.82 5.53,0 10.43,0.35 14.7,1.01 4.24,0.66 8.18,1.69 11.8,3.08l0 22.13c-1.79,-1.24 -3.71,-2.32 -5.81,-3.26 -2.1,-0.93 -4.27,-1.72 -6.49,-2.35 -2.2,-0.61 -4.42,-1.06 -6.62,-1.36 -2.2,-0.28 -4.27,-0.43 -6.24,-0.43 -2.73,0 -5.18,0.25 -7.4,0.76 -2.22,0.53 -4.09,1.26 -5.63,2.2 -1.52,0.93 -2.7,2.05 -3.56,3.36 -0.83,1.31 -1.24,2.78 -1.24,4.39 0,1.79 0.45,3.38 1.39,4.77 0.93,1.41 2.27,2.75 4.02,4.02 1.72,1.24 3.81,2.48 6.29,3.69 2.45,1.21 5.25,2.45 8.36,3.74 4.24,1.77 8.03,3.66 11.42,5.66 3.38,2 6.29,4.27 8.69,6.77 2.43,2.53 4.27,5.41 5.56,8.64 1.29,3.21 1.92,6.97 1.92,11.27 0,5.94 -1.11,10.89 -3.36,14.93 -2.25,4.02 -5.28,7.27 -9.15,9.75 -3.84,2.5 -8.31,4.29 -13.41,5.38 -5.13,1.09 -10.51,1.62 -16.19,1.62 -5.81,0 -11.34,-0.48 -16.6,-1.46 -5.25,-0.99 -9.83,-2.48 -13.66,-4.45zm134.68 5.91c-15.21,0 -27.58,-4.93 -37.16,-14.8 -9.57,-9.95 -14.35,-22.86 -14.35,-38.7 0,-16.72 4.85,-30.29 14.57,-40.69 9.67,-10.36 22.56,-15.56 38.62,-15.56 15.16,0 27.38,4.98 36.7,14.88 9.37,9.88 14.07,22.96 14.07,39.23 0,16.62 -4.85,30.06 -14.57,40.34 -0.35,0.33 -0.66,0.68 -0.96,0.98 -0.3,0.33 -0.63,0.63 -0.96,0.93l26.85 25.82 -33.44 0 -14.07 -14.27c-4.62,1.24 -9.73,1.84 -15.31,1.84zm1.03 -89.16c-8.33,0 -15,3.16 -19.98,9.47 -4.92,6.27 -7.4,14.58 -7.4,24.93 0,10.51 2.48,18.82 7.4,24.96 4.93,6.11 11.39,9.17 19.38,9.17 8.26,0 14.78,-2.96 19.63,-8.89 4.82,-6.01 7.25,-14.27 7.25,-24.78 0,-10.96 -2.35,-19.53 -7.02,-25.69 -4.65,-6.11 -11.06,-9.17 -19.25,-9.17zm132.23 87.32l-63.2 0 0 -106.11 23.92 0 0 86.71 39.28 0 0 19.4z"/>
  </g>
 </g>
</svg>
